<svg width="640" height="480" viewBox="0 0 640 480" fill="none" xmlns="http://www.w3.org/2000/svg">
  <defs>
    <linearGradient id="bg" x1="70" y1="40" x2="580" y2="440" gradientUnits="userSpaceOnUse">
      <stop stop-color="#F4F3FF"/>
      <stop offset="1" stop-color="#FFFFFF"/>
    </linearGradient>
    <linearGradient id="accent" x1="160" y1="110" x2="470" y2="370" gradientUnits="userSpaceOnUse">
      <stop stop-color="#5E33FF"/>
      <stop offset="1" stop-color="#351A98"/>
    </linearGradient>
  </defs>

  <rect x="56" y="44" width="528" height="392" rx="32" fill="url(#bg)" stroke="#E2E8F0" stroke-width="2"/>
  <circle cx="320" cy="196" r="76" fill="url(#accent)" fill-opacity="0.14"/>
  <circle cx="320" cy="188" r="54" fill="#FFFFFF" stroke="#E2E8F0" stroke-width="2"/>
  <path d="M290 188c0-18 14-32 30-32s30 14 30 32-14 32-30 32-30-14-30-32z" fill="#CBD5E1"/>
  <path d="M238 356c18-54 60-78 82-78h0c22 0 64 24 82 78" stroke="url(#accent)" stroke-width="14" stroke-linecap="round"/>
  <rect x="160" y="88" width="320" height="18" rx="9" fill="#E2E8F0"/>
  <rect x="200" y="114" width="240" height="14" rx="7" fill="#E2E8F0"/>

  <rect x="112" y="392" width="416" height="12" rx="6" fill="#E2E8F0"/>
  <rect x="164" y="412" width="312" height="10" rx="5" fill="#E2E8F0"/>
</svg>

